<?xml version="1.0" encoding="utf-8"?>
<!-- Generator: Adobe Illustrator 18.0.0, SVG Export Plug-In . SVG Version: 6.00 Build 0)  -->
<!DOCTYPE svg PUBLIC "-//W3C//DTD SVG 1.1//EN" "http://www.w3.org/Graphics/SVG/1.1/DTD/svg11.dtd">
<svg version="1.1" id="Layer_1" xmlns="http://www.w3.org/2000/svg" xmlns:xlink="http://www.w3.org/1999/xlink" x="0px" y="0px"
	 viewBox="0 0 180 100" enable-background="new 0 0 180 100" xml:space="preserve">
<g id="XMLID_2_">
	<g>
		<path d="M41,45.5c1.5,4,2.5,6-3,8.5s-13.5-5-13.5-5l8-7C32.5,42,39.5,41.5,41,45.5z"/>
		<path d="M24.5,69l-10,5.5C13.5,52,5,48.2,5,48.2l9.5-6.3C24,47.5,24.5,69,24.5,69z"/>
	</g>
	<g>
	</g>
</g>
<g id="XMLID_1_">
	<g>
		<path d="M74.5,48.6l-15,13c1.5,3.5,11,6.5,11,6.5l-8.7,6c0,0-2.8,2-8.8-3s-4.4-10.6-3.5-13c0.9-2.5,11-16,17.5-16.5
			S74.5,48.6,74.5,48.6z M64,54.6v-3.5h-5.5V58L64,54.6z"/>
	</g>
	<g>
	</g>
</g>
<g id="XMLID_3_">
	<g>
		<path d="M85,64.1c0,0,9.8-8.3,18-15.7c8.2-7.3,9.3-4.3,14.5,0.3s13.4,12,11.8,14.7c-1.6,2.7-7.8,9.3-7.8,9.3s-1.6-2.3-4.6-7.7
			c-3-5.3-8,0-8,0s-13,8.7-21.7,9.3c-8.7,0.7-8.2-3.1-7.1-5C81,67.8,85,64.1,85,64.1z M107.3,55.4c-4.3-3-8.7,0-8.7,0
			S90,61,95.3,64.8c5.3,3.8,8.7-0.7,10.2-1.7C107,62.1,111.6,58.4,107.3,55.4z"/>
	</g>
	<g>
	</g>
</g>
<g id="XMLID_4_">
	<g>
		<path d="M162.3,39.7c12,6.7,11,10.3,8.7,16.7c-1.1,2.9-5.1,6.4-9.5,9.5l-2.7-0.9c3.6-2.3,4-4.2,4.8-7.4c1-4-6-8-11.7-10.3
			c-5.7-2.3-16.7-8.3-18.3-9.3c-2.4-1.5,0-7.3,0-7.3l5-5.7c5.7,5,12.3,9.7,12.3,9.7L162.3,39.7z"/>
		<path d="M155,67.1c1.6-0.7,2.8-1.4,3.9-2l2.7,0.9c-5.3,3.8-11.2,6.9-13.3,7.5c-3.8,1-9.2,1.9-11.5,0c-2.5-2.1-0.7-11.3-0.7-11.3
			c1.3-2.7,7.7-11,7.7-11h4.5c0,0-0.5,1.3-3.2,6C142.3,61.7,150.5,69.1,155,67.1z"/>
	</g>
	<g>
	</g>
</g>
</svg>
